<svg width="446" height="150" viewBox="0 0 446 150" fill="none" xmlns="http://www.w3.org/2000/svg">
<g clip-path="url(#clip0_111_1240)">
<mask id="mask0_111_1240" style="mask-type:luminance" maskUnits="userSpaceOnUse" x="0" y="0" width="446" height="150">
<path d="M446 0.255859H0.5V149.256H446V0.255859Z" fill="white"/>
</mask>
<g mask="url(#mask0_111_1240)">
<path d="M446 0.255859H0.5V149.256H446V0.255859Z" fill="#1C1C1C"/>
<path d="M309.068 3.50586H285.068V27.5059H309.068V3.50586Z" stroke="#262626"/>
<path d="M141.068 3.50586H117.068V27.5059H141.068V3.50586Z" stroke="#262626"/>
<path d="M117.068 3.50586H93.0684V27.5059H117.068V3.50586Z" stroke="#262626"/>
<path d="M333.068 3.50586H309.068V27.5059H333.068V3.50586Z" stroke="#262626"/>
<path d="M165.068 3.50586H141.068V27.5059H165.068V3.50586Z" stroke="#262626"/>
<path d="M285.068 3.50586H261.068V27.5059H285.068V3.50586Z" stroke="#262626"/>
<path d="M309.068 27.5059H285.068V51.5059H309.068V27.5059Z" stroke="#262626"/>
<path d="M117.068 75.5059H93.0684V99.5059H117.068V75.5059Z" stroke="#262626"/>
<path d="M93.0684 51.5059H69.0684V75.5059H93.0684V51.5059Z" stroke="#262626"/>
<path d="M45.0684 51.5059H21.0684V75.5059H45.0684V51.5059Z" stroke="#262626"/>
<path d="M69.0684 51.5059H45.0684V75.5059H69.0684V51.5059Z" stroke="#262626"/>
<path d="M117.068 27.5059H93.0684V51.5059H117.068V27.5059Z" stroke="#262626"/>
<path d="M93.0684 27.5059H69.0684V51.5059H93.0684V27.5059Z" stroke="#3E3E3E"/>
<path d="M333.068 27.5059H309.068V51.5059H333.068V27.5059Z" stroke="#262626"/>
<path d="M381.068 51.5059H357.068V75.5059H381.068V51.5059Z" stroke="#262626"/>
<path d="M406.919 26.0059H382.919V50.0059H406.919V26.0059Z" stroke="#262626"/>
<path d="M381.068 3.50586H357.068V27.5059H381.068V3.50586Z" stroke="#262626"/>
<path d="M165.068 27.5059H141.068V51.5059H165.068V27.5059Z" stroke="#262626"/>
<path d="M261.068 27.5059H237.068V51.5059H261.068V27.5059Z" stroke="#3E3E3E"/>
<path d="M237.068 51.5059H213.068V75.5059H237.068V51.5059Z" stroke="#262626"/>
<path d="M213.068 51.5059H189.068V75.5059H213.068V51.5059Z" stroke="#262626"/>
<path d="M213.068 27.5059H189.068V51.5059H213.068V27.5059Z" stroke="#262626"/>
<path d="M189.068 27.5059H165.068V51.5059H189.068V27.5059Z" stroke="#262626"/>
<path d="M189.068 51.5059H165.068V75.5059H189.068V51.5059Z" stroke="#262626"/>
<path d="M86.9189 -22.7441H54.9189V9.25586H86.9189V-22.7441Z" stroke="#262626"/>
<path d="M305.068 27.5059H121.068C118.859 27.5059 117.068 29.2967 117.068 31.5059V158.006C117.068 160.215 118.859 162.006 121.068 162.006H305.068C307.277 162.006 309.068 160.215 309.068 158.006V31.5059C309.068 29.2967 307.277 27.5059 305.068 27.5059Z" fill="#232323" fill-opacity="0.94"/>
<path d="M305.068 27.5059H121.068C118.859 27.5059 117.068 29.2967 117.068 31.5059V158.006C117.068 160.215 118.859 162.006 121.068 162.006H305.068C307.277 162.006 309.068 160.215 309.068 158.006V31.5059C309.068 29.2967 307.277 27.5059 305.068 27.5059Z" stroke="#2E2E2E"/>
<path d="M126.321 38.0752C127.426 38.0752 128.321 37.1798 128.321 36.0752C128.321 34.9706 127.426 34.0752 126.321 34.0752C125.216 34.0752 124.321 34.9706 124.321 36.0752C124.321 37.1798 125.216 38.0752 126.321 38.0752Z" fill="#3E3E3E"/>
<path d="M133.821 38.0752C134.926 38.0752 135.821 37.1798 135.821 36.0752C135.821 34.9706 134.926 34.0752 133.821 34.0752C132.716 34.0752 131.821 34.9706 131.821 36.0752C131.821 37.1798 132.716 38.0752 133.821 38.0752Z" fill="#3E3E3E"/>
<path d="M287.938 51.5059H138.198C135.989 51.5059 134.198 53.2967 134.198 55.5059V158.006C134.198 160.215 135.989 162.006 138.198 162.006H287.938C290.147 162.006 291.938 160.215 291.938 158.006V55.5059C291.938 53.2967 290.147 51.5059 287.938 51.5059Z" fill="#161616"/>
<path d="M287.938 51.5059H138.198C135.989 51.5059 134.198 53.2967 134.198 55.5059V158.006C134.198 160.215 135.989 162.006 138.198 162.006H287.938C290.147 162.006 291.938 160.215 291.938 158.006V55.5059C291.938 53.2967 290.147 51.5059 287.938 51.5059Z" stroke="#1C1C1C"/>
<path d="M446 0.255859H0.5V149.256H446V0.255859Z" fill="url(#paint0_radial_111_1240)"/>
<path d="M160.5 55.7559H140C138.895 55.7559 138 56.6513 138 57.7559V136.756C138 137.86 138.895 138.756 140 138.756H160.5C161.605 138.756 162.5 137.86 162.5 136.756V57.7559C162.5 56.6513 161.605 55.7559 160.5 55.7559Z" fill="#1C1C1C"/>
<path d="M283.068 71.7559H166.818C165.713 71.7559 164.818 72.6513 164.818 73.7559V74.0059C164.818 75.1104 165.713 76.0059 166.818 76.0059H283.068C284.173 76.0059 285.068 75.1104 285.068 74.0059V73.7559C285.068 72.6513 284.173 71.7559 283.068 71.7559Z" fill="#1C1C1C"/>
<path d="M283.068 80.0059H166.818C165.713 80.0059 164.818 80.9013 164.818 82.0059V82.2559C164.818 83.3604 165.713 84.2559 166.818 84.2559H283.068C284.173 84.2559 285.068 83.3604 285.068 82.2559V82.0059C285.068 80.9013 284.173 80.0059 283.068 80.0059Z" fill="#1C1C1C"/>
<path d="M283.068 88.2559H166.818C165.713 88.2559 164.818 89.1513 164.818 90.2559V90.5059C164.818 91.6104 165.713 92.5059 166.818 92.5059H283.068C284.173 92.5059 285.068 91.6104 285.068 90.5059V90.2559C285.068 89.1513 284.173 88.2559 283.068 88.2559Z" fill="#1C1C1C"/>
<path d="M283.068 96.5059H166.818C165.713 96.5059 164.818 97.4013 164.818 98.5059V98.7559C164.818 99.8604 165.713 100.756 166.818 100.756H283.068C284.173 100.756 285.068 99.8604 285.068 98.7559V98.5059C285.068 97.4013 284.173 96.5059 283.068 96.5059Z" fill="#1C1C1C"/>
<path d="M283.068 104.756H166.818C165.713 104.756 164.818 105.651 164.818 106.756V107.006C164.818 108.111 165.713 109.006 166.818 109.006H283.068C284.173 109.006 285.068 108.111 285.068 107.006V106.756C285.068 105.651 284.173 104.756 283.068 104.756Z" fill="#1C1C1C"/>
<path d="M283.068 113.006H166.818C165.713 113.006 164.818 113.901 164.818 115.006V115.256C164.818 116.361 165.713 117.256 166.818 117.256H283.068C284.173 117.256 285.068 116.361 285.068 115.256V115.006C285.068 113.901 284.173 113.006 283.068 113.006Z" fill="#1C1C1C"/>
<path d="M283.068 121.256H166.818C165.713 121.256 164.818 122.151 164.818 123.256V123.506C164.818 124.611 165.713 125.506 166.818 125.506H283.068C284.173 125.506 285.068 124.611 285.068 123.506V123.256C285.068 122.151 284.173 121.256 283.068 121.256Z" fill="#1C1C1C"/>
<path d="M283.068 129.506H166.818C165.713 129.506 164.818 130.401 164.818 131.506V131.756C164.818 132.861 165.713 133.756 166.818 133.756H283.068C284.173 133.756 285.068 132.861 285.068 131.756V131.506C285.068 130.401 284.173 129.506 283.068 129.506Z" fill="#1C1C1C"/>
<path d="M283.068 137.756H166.818C165.713 137.756 164.818 138.651 164.818 139.756V140.006C164.818 141.111 165.713 142.006 166.818 142.006H283.068C284.173 142.006 285.068 141.111 285.068 140.006V139.756C285.068 138.651 284.173 137.756 283.068 137.756Z" fill="#1C1C1C"/>
<path d="M177.75 63.7559H166.818C165.713 63.7559 164.818 64.6513 164.818 65.7559V66.0059C164.818 67.1104 165.713 68.0059 166.818 68.0059H177.75C178.854 68.0059 179.75 67.1104 179.75 66.0059V65.7559C179.75 64.6513 178.854 63.7559 177.75 63.7559Z" fill="#1C1C1C"/>
<path d="M201.75 63.7559H184.068C182.963 63.7559 182.068 64.6513 182.068 65.7559V66.0059C182.068 67.1104 182.963 68.0059 184.068 68.0059H201.75C202.854 68.0059 203.75 67.1104 203.75 66.0059V65.7559C203.75 64.6513 202.854 63.7559 201.75 63.7559Z" fill="#1C1C1C"/>
<path d="M225.75 63.7559H208.068C206.963 63.7559 206.068 64.6513 206.068 65.7559V66.0059C206.068 67.1104 206.963 68.0059 208.068 68.0059H225.75C226.854 68.0059 227.75 67.1104 227.75 66.0059V65.7559C227.75 64.6513 226.854 63.7559 225.75 63.7559Z" fill="#1C1C1C"/>
<path d="M283.068 63.7559H232.068C230.963 63.7559 230.068 64.6513 230.068 65.7559V66.0059C230.068 67.1104 230.963 68.0059 232.068 68.0059H283.068C284.173 68.0059 285.068 67.1104 285.068 66.0059V65.7559C285.068 64.6513 284.173 63.7559 283.068 63.7559Z" fill="#1C1C1C"/>
</g>
<path d="M243.069 57.348C243.589 57.348 243.973 57.92 243.973 58.732C243.973 59.476 243.597 60.052 243.069 60.052C242.545 60.052 242.173 59.48 242.173 58.732C242.173 57.912 242.549 57.348 243.069 57.348ZM243.069 57.56C242.733 57.564 242.505 58.02 242.505 58.732C242.505 58.972 242.541 59.188 242.601 59.36L243.433 57.788C243.337 57.64 243.213 57.56 243.069 57.56ZM243.069 59.8C243.421 59.8 243.649 59.36 243.649 58.732C243.649 58.468 243.617 58.24 243.557 58.056L242.741 59.632C242.833 59.74 242.941 59.8 243.069 59.8Z" fill="#4F4F4F"/>
<path d="M240.661 59.8401C240.661 59.7081 240.741 59.6321 240.873 59.6321C241.005 59.6321 241.081 59.7081 241.081 59.8401C241.081 59.9761 241.005 60.0521 240.873 60.0521C240.737 60.0521 240.661 59.9761 240.661 59.8401Z" fill="#4F4F4F"/>
<path d="M239.422 59.78C239.422 59.852 239.422 59.932 239.442 60H237.998V59.768H238.574V57.832C238.474 57.972 238.25 58.072 237.97 58.1L237.942 57.82C238.222 57.756 238.446 57.608 238.574 57.4H238.858V59.768H239.422V59.78Z" fill="#4F4F4F"/>
<path d="M236.263 59.8401C236.263 59.7081 236.343 59.6321 236.475 59.6321C236.607 59.6321 236.683 59.7081 236.683 59.8401C236.683 59.9761 236.607 60.0521 236.475 60.0521C236.339 60.0521 236.263 59.9761 236.263 59.8401Z" fill="#4F4F4F"/>
<path d="M235.024 59.78C235.024 59.852 235.024 59.932 235.044 60H233.6V59.768H234.176V57.832C234.076 57.972 233.852 58.072 233.572 58.1L233.544 57.82C233.824 57.756 234.048 57.608 234.176 57.4H234.46V59.768H235.024V59.78Z" fill="#4F4F4F"/>
<path d="M232.617 58.1H232.917L232.189 60H231.905L231.233 58.1H231.533L232.053 59.556L232.617 58.1Z" fill="#4F4F4F"/>
<path d="M228.27 59.492L228.526 59.608C228.382 59.92 228.126 60.052 227.878 60.052C227.542 60.052 227.218 59.796 227.218 59.352V58.356H226.91V58.1H227.218V57.38L227.502 57.4V58.1H228.31V58.356H227.502V59.352C227.502 59.632 227.682 59.772 227.874 59.772C228.026 59.772 228.186 59.688 228.27 59.492Z" fill="#4F4F4F"/>
<path d="M225.499 58.048C226.031 58.048 226.343 58.396 226.343 58.996C226.343 59.632 225.991 60.048 225.467 60.048C225.255 60.048 225.067 59.98 224.927 59.856V60.668L224.647 60.688V58.1H225.003C224.971 58.144 224.927 58.248 224.927 58.332V58.34C225.071 58.136 225.247 58.048 225.499 58.048ZM225.467 59.776C225.811 59.776 226.059 59.452 226.059 58.996C226.059 58.572 225.839 58.296 225.499 58.296C225.259 58.296 225.051 58.432 224.927 58.672V59.484C225.015 59.688 225.183 59.776 225.467 59.776Z" fill="#4F4F4F"/>
<path d="M223.252 57.764C223.116 57.764 223.044 57.692 223.044 57.552C223.044 57.42 223.12 57.348 223.252 57.348C223.388 57.348 223.46 57.42 223.46 57.552C223.46 57.692 223.388 57.764 223.252 57.764ZM224.004 59.78C224.004 59.852 224.004 59.932 224.024 60H222.576V59.768H223.148V58.332L222.76 58.312V58.1H223.424L223.42 59.768H224.004V59.78Z" fill="#4F4F4F"/>
<path d="M221.852 58.412C221.528 58.236 221.168 58.392 221.104 58.676V59.768H221.668V59.78C221.668 59.852 221.668 59.932 221.688 60H220.24V59.768H220.828V58.332L220.44 58.312V58.1H221.14C221.116 58.136 221.088 58.28 221.088 58.324C221.22 58.072 221.52 58.048 221.668 58.048C221.74 58.048 221.812 58.052 222.028 58.136L221.852 58.412Z" fill="#4F4F4F"/>
<path d="M219.385 59.404L219.709 59.452C219.637 59.816 219.313 60.048 218.877 60.048C218.329 60.048 218.021 59.704 218.021 59.112C218.021 58.508 218.301 58.048 218.877 58.048C219.245 58.048 219.577 58.256 219.677 58.572L219.365 58.66C219.297 58.44 219.097 58.312 218.877 58.312C218.505 58.312 218.337 58.616 218.337 59.112C218.337 59.552 218.525 59.784 218.877 59.784C219.153 59.784 219.337 59.652 219.385 59.404Z" fill="#4F4F4F"/>
<path d="M216.766 58.5521C217.266 58.6481 217.506 58.8321 217.506 59.2921C217.506 59.8041 217.15 60.0521 216.598 60.0521C216.27 60.0521 215.954 59.9121 215.854 59.7201L216.05 59.5361C216.17 59.7121 216.366 59.7961 216.63 59.7961C216.998 59.7961 217.23 59.6641 217.234 59.3201C217.242 58.9921 217.054 58.8841 216.73 58.8281C216.214 58.7361 215.87 58.4681 215.87 58.0521C215.87 57.6441 216.198 57.3521 216.658 57.3521C216.982 57.3521 217.27 57.4801 217.41 57.6921L217.222 57.8681C217.05 57.6721 216.918 57.6121 216.694 57.6121C216.342 57.6121 216.138 57.7681 216.138 58.0401C216.138 58.2961 216.346 58.4681 216.766 58.5521Z" fill="#4F4F4F"/>
<path d="M213.055 58.412C212.731 58.236 212.371 58.392 212.307 58.676V59.768H212.871V59.78C212.871 59.852 212.871 59.932 212.891 60H211.443V59.768H212.031V58.332L211.643 58.312V58.1H212.343C212.319 58.136 212.291 58.28 212.291 58.324C212.423 58.072 212.723 58.048 212.871 58.048C212.943 58.048 213.015 58.052 213.231 58.136L213.055 58.412Z" fill="#4F4F4F"/>
<path d="M210.096 58.048C210.636 58.048 210.916 58.4 210.892 59.016L210.888 59.18L209.532 59.188C209.532 59.544 209.768 59.792 210.104 59.792C210.272 59.792 210.452 59.732 210.668 59.524L210.836 59.732C210.652 59.932 210.392 60.052 210.112 60.052C209.612 60.052 209.252 59.692 209.252 59.188V59.016C209.268 58.404 209.552 58.048 210.096 58.048ZM210.592 58.932C210.612 58.524 210.436 58.296 210.068 58.296C209.7 58.296 209.552 58.54 209.536 58.932H210.592Z" fill="#4F4F4F"/>
<path d="M208.593 59.78C208.593 59.852 208.593 59.932 208.613 60H207.169V59.768H207.745V57.632L207.353 57.612V57.4H208.029V59.768H208.593V59.78Z" fill="#4F4F4F"/>
<path d="M206.394 59.78C206.394 59.852 206.394 59.932 206.414 60H204.97V59.768H205.546V57.632L205.154 57.612V57.4H205.83V59.768H206.394V59.78Z" fill="#4F4F4F"/>
<path d="M203.419 58.048C203.923 58.048 204.283 58.408 204.283 58.912V60H203.927C203.955 59.956 203.999 59.852 203.999 59.768C203.903 59.932 203.675 60.044 203.407 60.048C202.987 60.048 202.655 59.86 202.655 59.508C202.655 59.128 203.035 58.932 203.799 58.932C203.863 58.932 203.931 58.932 203.999 58.936V58.912C203.999 58.552 203.767 58.304 203.431 58.304C203.259 58.304 203.079 58.368 202.867 58.572L202.695 58.368C202.883 58.164 203.143 58.048 203.419 58.048ZM203.355 59.808C203.583 59.808 203.847 59.704 203.999 59.492V59.184C203.927 59.18 203.855 59.18 203.787 59.18C203.211 59.18 202.943 59.272 202.943 59.508C202.943 59.704 203.131 59.808 203.355 59.808Z" fill="#4F4F4F"/>
<path d="M201.879 59.492L202.135 59.608C201.991 59.92 201.735 60.052 201.487 60.052C201.151 60.052 200.827 59.796 200.827 59.352V58.356H200.519V58.1H200.827V57.38L201.111 57.4V58.1H201.919V58.356H201.111V59.352C201.111 59.632 201.291 59.772 201.483 59.772C201.635 59.772 201.795 59.688 201.879 59.492Z" fill="#4F4F4F"/>
<path d="M199.2 58.912C199.68 59.004 199.876 59.152 199.876 59.44C199.876 59.796 199.576 60.052 199.116 60.052C198.776 60.052 198.516 59.912 198.32 59.652L198.512 59.456C198.696 59.672 198.896 59.796 199.12 59.796C199.38 59.796 199.608 59.632 199.608 59.444C199.608 59.316 199.508 59.256 199.176 59.192C198.628 59.08 198.4 58.908 198.4 58.612C198.4 58.272 198.696 58.048 199.136 58.048C199.456 58.048 199.712 58.156 199.852 58.356L199.672 58.536C199.516 58.372 199.376 58.308 199.168 58.308C198.876 58.308 198.668 58.432 198.668 58.604C198.668 58.756 198.836 58.844 199.2 58.912Z" fill="#4F4F4F"/>
<path d="M197.677 59.78C197.677 59.852 197.677 59.932 197.697 60H197.377V58.94C197.377 58.604 197.181 58.332 196.845 58.332C196.617 58.332 196.497 58.46 196.413 58.628V60H196.129V58.1H196.485C196.457 58.14 196.417 58.24 196.413 58.324V58.332V58.324C196.501 58.156 196.753 58.048 196.985 58.048C197.477 58.048 197.677 58.536 197.677 59.012V59.78Z" fill="#4F4F4F"/>
<path d="M195.398 59.78C195.398 59.852 195.398 59.932 195.418 60H193.97V59.768H194.546V57.632H194.058V57.4H195.294V57.632H194.83V59.768H195.398V59.78Z" fill="#4F4F4F"/>
<path d="M190.287 60.052C189.759 60.052 189.415 59.652 189.415 59.032C189.415 58.424 189.751 58.048 190.287 58.048C190.819 58.048 191.167 58.432 191.167 59.032C191.167 59.644 190.819 60.052 190.287 60.052ZM190.287 59.808C190.639 59.808 190.843 59.52 190.843 59.032C190.843 58.544 190.639 58.276 190.287 58.28C189.951 58.284 189.747 58.552 189.747 59.032C189.747 59.512 189.951 59.808 190.287 59.808Z" fill="#4F4F4F"/>
<path d="M188.984 59.068C188.984 59.664 188.632 60.052 188.088 60.052C187.5 60.052 187.164 59.58 187.164 58.744C187.164 57.892 187.564 57.348 188.188 57.348C188.448 57.348 188.676 57.46 188.944 57.732L188.708 57.924C188.504 57.688 188.38 57.612 188.188 57.612C187.732 57.612 187.48 58.012 187.48 58.744C187.48 59.424 187.692 59.784 188.088 59.784C188.468 59.784 188.716 59.508 188.724 59.068H188.116V58.832H188.984V59.068Z" fill="#4F4F4F"/>
<path d="M185.905 58.048C186.445 58.048 186.725 58.4 186.701 59.016L186.697 59.18L185.341 59.188C185.341 59.544 185.577 59.792 185.913 59.792C186.081 59.792 186.261 59.732 186.477 59.524L186.645 59.732C186.461 59.932 186.201 60.052 185.921 60.052C185.421 60.052 185.061 59.692 185.061 59.188V59.016C185.077 58.404 185.361 58.048 185.905 58.048ZM186.401 58.932C186.421 58.524 186.245 58.296 185.877 58.296C185.509 58.296 185.361 58.54 185.345 58.932H186.401Z" fill="#4F4F4F"/>
<path d="M184.534 60H184.23V59.856C184.09 59.98 183.902 60.048 183.694 60.048C183.166 60.048 182.818 59.632 182.818 58.996C182.818 58.396 183.126 58.048 183.662 58.048C183.914 58.048 184.086 58.136 184.23 58.34V57.38L184.514 57.4V59.78C184.514 59.852 184.514 59.932 184.534 60ZM183.694 59.776C183.978 59.776 184.142 59.688 184.23 59.484V58.672C184.106 58.432 183.902 58.296 183.662 58.296C183.322 58.296 183.102 58.572 183.102 58.996C183.102 59.452 183.346 59.776 183.694 59.776Z" fill="#4F4F4F"/>
<path d="M181.49 60.052C180.962 60.052 180.618 59.652 180.618 59.032C180.618 58.424 180.954 58.048 181.49 58.048C182.022 58.048 182.37 58.432 182.37 59.032C182.37 59.644 182.022 60.052 181.49 60.052ZM181.49 59.808C181.842 59.808 182.046 59.52 182.046 59.032C182.046 58.544 181.842 58.276 181.49 58.28C181.154 58.284 180.95 58.552 180.95 59.032C180.95 59.512 181.154 59.808 181.49 59.808Z" fill="#4F4F4F"/>
<path d="M180.103 60H179.819L178.771 58.032V60H178.487V57.4H178.779L179.819 59.32V57.4H180.103V60Z" fill="#4F4F4F"/>
<path d="M177.208 58.912C177.688 59.004 177.884 59.152 177.884 59.44C177.884 59.796 177.584 60.052 177.124 60.052C176.784 60.052 176.524 59.912 176.328 59.652L176.52 59.456C176.704 59.672 176.904 59.796 177.128 59.796C177.388 59.796 177.616 59.632 177.616 59.444C177.616 59.316 177.516 59.256 177.184 59.192C176.636 59.08 176.408 58.908 176.408 58.612C176.408 58.272 176.704 58.048 177.144 58.048C177.464 58.048 177.72 58.156 177.86 58.356L177.68 58.536C177.524 58.372 177.384 58.308 177.176 58.308C176.884 58.308 176.676 58.432 176.676 58.604C176.676 58.756 176.844 58.844 177.208 58.912Z" fill="#4F4F4F"/>
<path d="M175.489 59.492L175.745 59.608C175.601 59.92 175.345 60.052 175.097 60.052C174.761 60.052 174.437 59.796 174.437 59.352V58.356H174.129V58.1H174.437V57.38L174.721 57.4V58.1H175.529V58.356H174.721V59.352C174.721 59.632 174.901 59.772 175.093 59.772C175.245 59.772 175.405 59.688 175.489 59.492Z" fill="#4F4F4F"/>
<path d="M172.71 58.048C173.25 58.048 173.53 58.4 173.506 59.016L173.502 59.18L172.146 59.188C172.146 59.544 172.382 59.792 172.718 59.792C172.886 59.792 173.066 59.732 173.282 59.524L173.45 59.732C173.266 59.932 173.006 60.052 172.726 60.052C172.226 60.052 171.866 59.692 171.866 59.188V59.016C171.882 58.404 172.166 58.048 172.71 58.048ZM173.206 58.932C173.226 58.524 173.05 58.296 172.682 58.296C172.314 58.296 172.166 58.54 172.15 58.932H173.206Z" fill="#4F4F4F"/>
<path d="M170.834 57.764C170.698 57.764 170.626 57.692 170.626 57.552C170.626 57.42 170.702 57.348 170.834 57.348C170.966 57.348 171.042 57.42 171.042 57.552C171.042 57.692 170.966 57.764 170.834 57.764ZM170.326 58.1H171.006L171.002 60C171.002 60.448 170.678 60.7 170.342 60.7C170.094 60.7 169.838 60.572 169.694 60.256L169.946 60.144C170.03 60.336 170.19 60.42 170.346 60.42C170.538 60.42 170.718 60.284 170.718 60V58.332L170.326 58.312V58.1Z" fill="#4F4F4F"/>
<path d="M168.271 57.764C168.135 57.764 168.063 57.692 168.063 57.552C168.063 57.42 168.139 57.348 168.271 57.348C168.407 57.348 168.479 57.42 168.479 57.552C168.479 57.692 168.407 57.764 168.271 57.764ZM169.023 59.78C169.023 59.852 169.023 59.932 169.043 60H167.595V59.768H168.167V58.332L167.779 58.312V58.1H168.443L168.439 59.768H169.023V59.78Z" fill="#4F4F4F"/>
<path d="M165.284 57.4H165.9C166.656 57.4 166.948 57.764 166.948 58.692C166.948 59.564 166.676 60 166.132 60H165.284V57.4ZM165.568 59.716H166.132C166.488 59.716 166.672 59.36 166.672 58.692C166.672 58.004 166.48 57.696 166.068 57.696H165.568V59.716Z" fill="#4F4F4F"/>
</g>
<defs>
<radialGradient id="paint0_radial_111_1240" cx="0" cy="0" r="1" gradientUnits="userSpaceOnUse" gradientTransform="translate(223.25 67.2559) rotate(90) scale(71.5 213.78)">
<stop offset="0.208333" stop-color="#1C1C1C" stop-opacity="0"/>
<stop offset="1" stop-color="#1C1C1C"/>
</radialGradient>
<clipPath id="clip0_111_1240">
<rect width="446" height="150" fill="white"/>
</clipPath>
</defs>
</svg>
