<svg width="1024" height="1024" viewBox="0 0 1024 1024" fill="none" xmlns="http://www.w3.org/2000/svg">
<path d="M917.7 148.8L875.3 106.4C873.7 104.8 871.7 104.1 869.6 104.1C867.5 104.1 865.5 104.9 863.9 106.4L787.8 182.5C754.718 160.085 715.661 148.135 675.7 148.2C624.5 148.2 573.3 167.7 534.2 206.8L432.3 308.7C430.811 310.204 429.976 312.234 429.976 314.35C429.976 316.466 430.811 318.496 432.3 320L704 591.7C705.6 593.3 707.6 594 709.7 594C711.7 594 713.8 593.2 715.4 591.7L817.3 489.8C886.2 420.8 894.3 314.1 841.6 236.3L917.7 160.2C920.8 157 920.8 151.9 917.7 148.8ZM769.1 441.7L709.7 501.1L522.9 314.3L582.3 254.9C607.2 230 640.4 216.2 675.7 216.2C711 216.2 744.1 229.9 769.1 254.9C794 279.8 807.8 313 807.8 348.3C807.8 383.6 794 416.7 769.1 441.7ZM578.9 546.7C577.396 545.211 575.366 544.376 573.25 544.376C571.134 544.376 569.104 545.211 567.6 546.7L501 613.3L410.7 523L477.4 456.3C480.5 453.2 480.5 448.1 477.4 445L441 408.6C439.496 407.111 437.466 406.276 435.35 406.276C433.234 406.276 431.204 407.111 429.7 408.6L363 475.3L320 432.3C319.253 431.553 318.364 430.964 317.384 430.569C316.405 430.174 315.356 429.98 314.3 430C312.3 430 310.2 430.8 308.6 432.3L206.8 534.2C137.9 603.2 129.8 709.9 182.5 787.7L106.4 863.8C104.911 865.304 104.076 867.334 104.076 869.45C104.076 871.566 104.911 873.596 106.4 875.1L148.8 917.5C150.4 919.1 152.4 919.8 154.5 919.8C156.6 919.8 158.6 919 160.2 917.5L236.3 841.4C270 864.3 309.2 875.7 348.4 875.7C399.6 875.7 450.8 856.2 489.9 817.1L591.8 715.2C594.9 712.1 594.9 707 591.8 703.9L548.8 660.9L615.5 594.2C618.6 591.1 618.6 586 615.5 582.9L578.9 546.7ZM441.7 769.1C429.461 781.402 414.905 791.156 398.874 797.799C382.842 804.441 365.653 807.84 348.3 807.8C313 807.8 279.9 794.1 254.9 769.1C242.598 756.861 232.844 742.305 226.201 726.274C219.559 710.242 216.16 693.053 216.2 675.7C216.2 640.4 229.9 607.3 254.9 582.3L314.3 522.9L501.1 709.7L441.7 769.1Z" fill="white"/>
</svg>
