<svg width="24" height="24" viewBox="0 0 24 24" fill="none" xmlns="http://www.w3.org/2000/svg">
<g clip-path="url(#clip0_111_1227)">
<path d="M21 13.9286H18.4286V11.3571H17.1429V17.1429H6.85714V6.85714L12.6429 6.85656V5.57143H10.0714V3H8.78571V5.57143H6.85714C6.51625 5.57177 6.18943 5.70734 5.94838 5.94838C5.70734 6.18943 5.57177 6.51625 5.57143 6.85714V8.78571H3V10.0714H5.57143V13.9286H3V15.2143H5.57143V17.1429C5.57182 17.4837 5.7074 17.8105 5.94844 18.0516C6.18947 18.2926 6.51627 18.4282 6.85714 18.4286H8.78571V21H10.0714V18.4286H13.9286V21H15.2143V18.4286H17.1429C17.4837 18.4281 17.8105 18.2925 18.0515 18.0515C18.2925 17.8105 18.4281 17.4837 18.4286 17.1429V15.2143H21V13.9286Z" fill="white"/>
<path d="M18.4286 3C17.7469 3.00071 17.0932 3.27186 16.6111 3.75394C16.1291 4.23602 15.8579 4.88966 15.8572 5.57143C15.8596 6.02902 15.9855 6.47747 16.2216 6.86949L14.3053 8.78571H8.78577V15.2143H15.2143V9.69478L17.1306 7.77855C17.5226 8.01457 17.971 8.14043 18.4286 8.14286C19.1106 8.14286 19.7647 7.87194 20.2469 7.3897C20.7291 6.90747 21.0001 6.25341 21.0001 5.57143C21.0001 4.88944 20.7291 4.23539 20.2469 3.75315C19.7647 3.27092 19.1106 3 18.4286 3ZM13.9286 13.9286H10.0715V10.0714H13.9286V13.9286ZM18.4286 6.85714C18.1743 6.85714 17.9258 6.78174 17.7143 6.64046C17.5029 6.49918 17.3381 6.29838 17.2408 6.06345C17.1435 5.82852 17.118 5.57 17.1676 5.3206C17.2172 5.07119 17.3397 4.8421 17.5195 4.66229C17.6993 4.48248 17.9284 4.36003 18.1778 4.31042C18.4272 4.26081 18.6857 4.28627 18.9206 4.38358C19.1556 4.4809 19.3564 4.64569 19.4977 4.85712C19.6389 5.06856 19.7143 5.31714 19.7143 5.57143C19.7139 5.9123 19.5784 6.2391 19.3373 6.48013C19.0963 6.72117 18.7695 6.85675 18.4286 6.85714Z" fill="white"/>
</g>
<defs>
<clipPath id="clip0_111_1227">
<rect width="24" height="24" fill="white"/>
</clipPath>
</defs>
</svg>
