<svg width="32" height="32" viewBox="0 0 32 32" fill="none" xmlns="http://www.w3.org/2000/svg">
<path d="M9.63295 7.968H13.3839V18.482C13.3839 23.22 11.1129 24.874 7.48495 24.874C6.59695 24.874 5.46095 24.726 4.72095 24.479L5.14095 21.443C5.65895 21.616 6.32595 21.739 7.06595 21.739C8.64595 21.739 9.63295 21.023 9.63295 18.457V7.968ZM16.6409 20.753C17.6279 21.271 19.2079 21.79 20.8119 21.79C22.5399 21.79 23.4529 21.074 23.4529 19.964C23.4529 18.952 22.6629 18.335 20.6639 17.644C17.8999 16.657 16.0739 15.127 16.0739 12.683C16.0739 9.845 18.4679 7.698 22.3669 7.698C24.2669 7.698 25.6249 8.068 26.6119 8.537L25.7729 11.548C25.1309 11.227 23.9219 10.758 22.3179 10.758C20.6889 10.758 19.8989 11.523 19.8989 12.362C19.8989 13.423 20.8119 13.892 22.9839 14.731C25.9209 15.817 27.2779 17.347 27.2779 19.716C27.2779 22.505 25.1559 24.874 20.5899 24.874C18.6899 24.874 16.8139 24.356 15.8759 23.837L16.6409 20.753Z" fill="white"/>
</svg>
