<svg width="17" height="17" viewBox="0 0 17 17" fill="none" xmlns="http://www.w3.org/2000/svg">
<path fill-rule="evenodd" clip-rule="evenodd" d="M4.29688 4.08859C4.29688 3.00628 5.17425 2.12891 6.25656 2.12891L13.4902 2.12892L13.4902 2.8228L6.25656 2.82278C5.55747 2.82278 4.99075 3.3895 4.99075 4.08859V14.1764H10.9248C11.6239 14.1764 12.1906 13.6097 12.1906 12.9106V4.73901L12.1839 3.89968L12.8777 3.89413L12.8845 4.73764L12.8845 12.9106C12.8845 13.9929 12.0071 14.8703 10.9248 14.8703H4.64381L4.29688 14.5233V4.08859Z" fill="#299764"/>
<path fill-rule="evenodd" clip-rule="evenodd" d="M13.6001 2.12891C14.3845 2.12891 15.0205 2.76479 15.0205 3.54927V4.723L14.6736 5.06994H12.5267L12.1797 4.71974L12.1848 4.1841L12.1797 3.54927C12.1797 3.0009 12.4905 2.52511 12.9455 2.2884L12.9455 2.12892L13.6001 2.12891ZM13.6001 2.82278C13.1993 2.8228 12.8743 3.14737 12.8736 3.548L12.8787 4.18158L12.8787 4.18761L12.8769 4.37606H14.3266V3.54927C14.3266 3.14806 14.0013 2.82279 13.6001 2.82278Z" fill="#299764"/>
<path fill-rule="evenodd" clip-rule="evenodd" d="M11.0949 5.39275H8.3125V4.69531H11.0949V5.39275Z" fill="#299764"/>
<path fill-rule="evenodd" clip-rule="evenodd" d="M11.0949 6.43181H8.3125V5.73438H11.0949V6.43181Z" fill="#299764"/>
<path fill-rule="evenodd" clip-rule="evenodd" d="M11.0949 7.47478H8.3125V6.77734H11.0949V7.47478Z" fill="#299764"/>
<path fill-rule="evenodd" clip-rule="evenodd" d="M11.0949 8.51384H8.3125V7.81641H11.0949V8.51384Z" fill="#299764"/>
<path fill-rule="evenodd" clip-rule="evenodd" d="M11.0977 9.55681H5.98438V8.85938H11.0977V9.55681Z" fill="#299764"/>
<path fill-rule="evenodd" clip-rule="evenodd" d="M6.55424 5.04058C6.18463 5.18063 5.92188 5.53793 5.92188 5.95662C5.92188 6.49749 6.36031 6.93593 6.90118 6.93593C7.0588 6.93593 7.18657 7.0637 7.18657 7.22132C7.18657 7.37896 7.05877 7.50675 6.90118 7.50675C6.74354 7.50675 6.61575 7.37895 6.61575 7.22132H5.92188C5.92188 7.63999 6.18462 7.99733 6.55424 8.13739V8.51481H7.24812V8.13739C7.61772 7.99732 7.88045 7.63998 7.88045 7.22132C7.88045 6.68048 7.44202 6.24205 6.90118 6.24205C6.74352 6.24205 6.61575 6.11428 6.61575 5.95662C6.61575 5.79902 6.74351 5.67123 6.90118 5.67123C7.0588 5.67123 7.18657 5.799 7.18657 5.95662H7.88045C7.88045 5.53795 7.61771 5.18064 7.24812 5.04059V4.69141H6.55424V5.04058Z" fill="#299764"/>
<path d="M2.47656 12.9119C2.47656 13.8026 3.19861 14.5246 4.08929 14.5246H10.9181C10.0274 14.5246 9.30534 13.8026 9.30534 12.9119V11.1484H2.47656V12.9119Z" fill="#92CEAC"/>
<path fill-rule="evenodd" clip-rule="evenodd" d="M2.13281 11.1477L2.47975 10.8008H9.30853L9.65547 11.1477V12.9111C9.65547 13.6102 10.2222 14.1769 10.9213 14.1769C11.6203 14.1769 12.187 13.6102 12.187 12.9111H12.8809C12.8809 13.9934 12.0035 14.8708 10.9213 14.8708H4.09248C3.01018 14.8708 2.13281 13.9934 2.13281 12.9111V11.1477ZM9.42519 14.1769C9.13599 13.8355 8.96159 13.3937 8.96159 12.9111V11.4947H2.82669V12.9111C2.82669 13.6102 3.39341 14.1769 4.09248 14.1769H9.42519Z" fill="#299764"/>
</svg>
