<svg width="24" height="24" viewBox="0 0 24 24" fill="none" xmlns="http://www.w3.org/2000/svg">
<g clip-path="url(#clip0_111_1227)">
<path d="M13.125 10.625H10.875C10.7258 10.625 10.5827 10.6843 10.4773 10.7898C10.3718 10.8952 10.3125 11.0383 10.3125 11.1875V14.5625C10.3125 14.7117 10.3718 14.8548 10.4773 14.9602C10.5827 15.0657 10.7258 15.125 10.875 15.125H13.125C13.2742 15.125 13.4173 15.0657 13.5227 14.9602C13.6282 14.8548 13.6875 14.7117 13.6875 14.5625V11.1875C13.6875 11.0383 13.6282 10.8952 13.5227 10.7898C13.4173 10.6843 13.2742 10.625 13.125 10.625ZM12.9 14.3375H11.1V11.4125H12.9V14.3375Z" fill="black"/>
<path d="M20.8369 9.71375L18.5363 7.41312C18.4315 7.30921 18.2901 7.25062 18.1425 7.25H15.33V6.15312C15.3376 5.85756 15.2286 5.57088 15.0265 5.35508C14.8244 5.13929 14.5454 5.01173 14.25 5H9.66001C9.51564 5.00568 9.37387 5.04027 9.24311 5.10172C9.11235 5.16318 8.99525 5.25024 8.89874 5.35777C8.80223 5.46529 8.72828 5.59108 8.68126 5.7277C8.63424 5.86432 8.61511 6.00898 8.62501 6.15312V7.25H5.85751C5.78348 7.24957 5.71009 7.26376 5.64156 7.29175C5.57303 7.31975 5.51069 7.36099 5.45813 7.41312L3.16313 9.71375C3.111 9.76631 3.06976 9.82864 3.04176 9.89718C3.01377 9.96571 2.99958 10.0391 3.00001 10.1131V18.5C3.00001 18.7984 3.11854 19.0845 3.32951 19.2955C3.54049 19.5065 3.82664 19.625 4.12501 19.625H19.875C20.1734 19.625 20.4595 19.5065 20.6705 19.2955C20.8815 19.0845 21 18.7984 21 18.5V10.1075C20.9994 9.95993 20.9408 9.81852 20.8369 9.71375ZM9.75001 6.125H14.25V7.25H9.75001V6.125ZM19.875 12.3125H14.25V13.3981H19.875V18.5H4.12501V13.3981H9.75001V12.3125H4.12501V10.3437L6.09376 8.375H17.9063L19.875 10.3437V12.3125Z" fill="black"/>
</g>
<defs>
<clipPath id="clip0_111_1227">
<rect width="24" height="24" fill="white"/>
</clipPath>
</defs>
</svg>
